# xmcd CD database file
#
# Track frame offsets:
#	150
#	8072
#	22932
#	39827
#	63180
#	72817
#	95492
#	111847
#	131355
#	137032
#	147510
#	154937
#	172885
#	197150
#	217252
#
# Disc length: 3098 seconds
#
# Revision: 0
# Processed by: cddbd v1.5.1PL2 Copyright (c) Steve Scherf et al.
# Submitted via: CDex 1.51
#
DISCID=cd0c180f
DTITLE=Strayhorn, Billy - Something to Live For (Dutch Jazz Orchestra, Jerry Van Rooijen)
DYEAR=2002
DGENRE=Jazz
TTITLE0=Fantastic Rhythm (ca. 1935)
TTITLE1=A Penthouse on Shady Avenue (ca. 1935)
TTITLE2=Let Nature Take Its Course (ca. 1935)
TTITLE3=Something to Live For (1937, arr. 1942)
TTITLE4=Everything Is Copasetic! (1962)
TTITLE5=Day Dream (1939, arr. 1957)
TTITLE6=Hip (1941)
TTITLE7=Blue House (1941)
TTITLE8=Sprite Music (1953)
TTITLE9=The Flowers Die of Love (1953 - words Federico Garcia Lorca)
TTITLE10=Love, Love (1953 - words Federico Garcia Lorca)
TTITLE11=Hipper-Bug (1941)
TTITLE12=Pretty Girl (aka 'The Star-Crossed Lovers') (1956)
TTITLE13=Chelsea Bridge (1941)
TTITLE14=On the Wrong Side of the Tracks (Ellington - Strayhorn, arr. 1947)
EXTD=YEAR: 2002
EXTT0=
EXTT1=
EXTT2=
EXTT3=
EXTT4=
EXTT5=
EXTT6=
EXTT7=
EXTT8=
EXTT9=
EXTT10=
EXTT11=
EXTT12=
EXTT13=
EXTT14=
PLAYORDER=
